<?xml version="1.0"?>
<svg width="1196" height="149" viewBox="0 0 1196 149" fill="none" xmlns="http://www.w3.org/2000/svg">
<path d="M0.293762 143.2H22.4938V6.4H0.293762V3.6H64.6938V6.4H42.4938V143.2H78.0938C89.8271 143.2 99.0271 139.533 105.694 132.2C112.36 124.867 117.227 114.867 120.294 102.2H122.494V146H0.293762V143.2ZM154.508 74.6C154.508 86.6 155.308 97.0667 156.908 106C158.508 114.933 161.174 122.4 164.908 128.4C168.641 134.4 173.441 138.867 179.308 141.8C185.174 144.733 192.441 146.2 201.108 146.2C209.641 146.2 216.841 144.733 222.708 141.8C228.708 138.867 233.574 134.4 237.308 128.4C241.041 122.4 243.708 114.933 245.308 106C246.908 97.0667 247.708 86.6 247.708 74.6C247.708 65.4 247.108 56.5333 245.908 48C244.708 39.3333 242.374 31.6667 238.908 25C235.574 18.2 230.841 12.8 224.708 8.79999C218.708 4.79999 210.841 2.8 201.108 2.8C191.374 2.8 183.441 4.79999 177.308 8.79999C171.308 12.8 166.574 18.2 163.108 25C159.774 31.6667 157.508 39.3333 156.308 48C155.108 56.5333 154.508 65.4 154.508 74.6ZM131.508 74.6C131.508 63.9333 133.574 54.0667 137.708 45C141.974 35.9333 147.374 28.0667 153.908 21.4C160.574 14.7333 168.041 9.53333 176.308 5.79999C184.574 1.93333 192.841 -3.8147e-06 201.108 -3.8147e-06C209.908 -3.8147e-06 218.441 1.93333 226.708 5.79999C235.108 9.53333 242.574 14.7333 249.108 21.4C255.641 28.0667 260.841 35.9333 264.708 45C268.708 54.0667 270.708 63.9333 270.708 74.6C270.708 83.9333 268.908 93.0667 265.308 102C261.708 110.933 256.774 118.867 250.508 125.8C244.241 132.733 236.841 138.333 228.308 142.6C219.908 146.867 210.841 149 201.108 149C191.108 149 181.841 146.933 173.308 142.8C164.774 138.667 157.374 133.2 151.108 126.4C144.974 119.467 140.174 111.533 136.708 102.6C133.241 93.5333 131.508 84.2 131.508 74.6ZM261.614 3.6H323.414V6.4H301.214L345.614 122.4L389.414 6.4H367.614V3.6H410.814V6.4H392.814L339.014 149H334.014L279.614 6.4H261.614V3.6ZM416.55 143.2H438.75V6.4H416.55V3.6H530.95V38.2H528.75C527.017 33 525.15 28.4667 523.15 24.6C521.15 20.6 518.75 17.2667 515.95 14.6C513.15 11.8 509.817 9.73333 505.95 8.4C502.083 7.06666 497.417 6.4 491.95 6.4H458.75V68.2H471.75C476.15 68.2 479.883 67.8 482.95 67C486.017 66.2 488.617 64.7333 490.75 62.6C493.017 60.3333 494.883 57.3333 496.35 53.6C497.95 49.7333 499.483 44.8 500.95 38.8H503.15V101H500.95C500.017 97.1333 499.017 93.4 497.95 89.8C497.017 86.2 495.617 83 493.75 80.2C492.017 77.4 489.617 75.2 486.55 73.6C483.617 71.8667 479.75 71 474.95 71H458.75V143.2H496.55C503.883 143.2 509.95 141.667 514.75 138.6C519.683 135.4 523.683 131.667 526.75 127.4C529.817 123 532.083 118.467 533.55 113.8C535.017 109.133 535.95 105.267 536.35 102.2H538.55V146H416.55V143.2ZM617.27 19.6C617.27 23.0667 618.204 27.2 620.07 32C622.07 36.8 624.27 41.6 626.67 46.4C628.937 45.0667 631.137 43.6667 633.27 42.2C635.537 40.7333 637.47 39 639.07 37C640.804 35 642.204 32.6667 643.27 30C644.337 27.3333 644.87 24.2 644.87 20.6C644.87 16.0667 643.737 12.0667 641.47 8.59999C639.337 5.13332 635.604 3.39999 630.27 3.39999C626.804 3.39999 623.737 4.93332 621.07 7.99999C618.537 11.0667 617.27 14.9333 617.27 19.6ZM610.07 56.4C603.137 60 597.604 64.2 593.47 69C589.337 73.6667 587.27 79.8667 587.27 87.6C587.27 93.6 588.337 99.9333 590.47 106.6C592.604 113.133 595.404 119.133 598.87 124.6C602.337 130.067 606.204 134.6 610.47 138.2C614.87 141.667 619.27 143.4 623.67 143.4C628.47 143.4 632.937 142.267 637.07 140C641.337 137.6 645.337 134.667 649.07 131.2L610.07 56.4ZM662.47 115.2C666.337 108.667 668.937 102.2 670.27 95.8C671.737 89.4 672.47 83 672.47 76.6C672.47 70.2 672.137 65.1333 671.47 61.4C670.937 57.5333 669.937 54.6 668.47 52.6C667.004 50.6 665.004 49.3333 662.47 48.8C660.07 48.1333 657.004 47.8 653.27 47.8V45H691.27V47.8C687.804 47.8 685.004 48.2667 682.87 49.2C680.737 50.1333 679.07 51.6 677.87 53.6C676.804 55.6 676.07 58.2 675.67 61.4C675.404 64.4667 675.27 68.2 675.27 72.6C675.27 78.0667 675.004 82.9333 674.47 87.2C673.937 91.4667 673.204 95.4 672.27 99C671.337 102.467 670.137 105.8 668.67 109C667.204 112.067 665.604 115.133 663.87 118.2C667.337 124.6 670.404 129.667 673.07 133.4C675.737 137 678.804 138.8 682.27 138.8C684.404 138.8 686.07 138.2 687.27 137C688.604 135.8 689.604 134.267 690.27 132.4C690.937 130.533 691.404 128.533 691.67 126.4C691.937 124.133 692.07 121.933 692.07 119.8H694.87C694.87 125.4 694.137 130.067 692.67 133.8C691.204 137.4 689.337 140.333 687.07 142.6C684.937 144.867 682.47 146.467 679.67 147.4C676.87 148.333 674.204 148.8 671.67 148.8C668.87 148.8 666.47 148.467 664.47 147.8C662.47 147.267 660.67 146.4 659.07 145.2C657.604 143.867 656.204 142.267 654.87 140.4C653.537 138.533 652.07 136.333 650.47 133.8C648.87 135.4 646.87 137.067 644.47 138.8C642.07 140.533 639.337 142.133 636.27 143.6C633.337 145.067 630.07 146.267 626.47 147.2C622.87 148.267 619.004 148.8 614.87 148.8C606.47 148.8 599.404 147.2 593.67 144C587.937 140.667 583.27 136.733 579.67 132.2C576.204 127.533 573.737 122.667 572.27 117.6C570.804 112.4 570.07 108 570.07 104.4C570.07 97.4667 571.27 91.4 573.67 86.2C576.204 81 579.337 76.4667 583.07 72.6C586.937 68.6 591.137 65.1333 595.67 62.2C600.204 59.2667 604.604 56.6 608.87 54.2C607.404 51.2667 605.937 47.8667 604.47 44C603.004 40 602.27 35.2 602.27 29.6C602.27 25.0667 603.07 21.0667 604.67 17.6C606.27 14 608.337 10.9333 610.87 8.4C613.404 5.86666 616.27 3.93333 619.47 2.6C622.804 1.26666 626.137 0.599988 629.47 0.599988C634.537 0.599988 638.804 2.19999 642.27 5.4C645.87 8.6 647.67 13.6 647.67 20.4C647.67 24.4 647.004 27.9333 645.67 31C644.47 33.9333 642.87 36.5333 640.87 38.8C639.004 41.0667 636.87 43 634.47 44.6C632.07 46.2 629.804 47.6 627.67 48.8L662.47 115.2ZM719.434 143.2H741.634V6.4H719.434V3.6H783.834V6.4H761.634V143.2H797.234C808.968 143.2 818.168 139.533 824.834 132.2C831.501 124.867 836.368 114.867 839.434 102.2H841.634V146H719.434V143.2ZM858.648 143.2H880.848V6.4H858.648V3.6H923.048V6.4H900.848V143.2H923.048V146H858.648V143.2ZM941.288 143.2H963.488V6.4H941.288V3.6H1055.69V38.2H1053.49C1051.75 33 1049.89 28.4667 1047.89 24.6C1045.89 20.6 1043.49 17.2667 1040.69 14.6C1037.89 11.8 1034.55 9.73333 1030.69 8.4C1026.82 7.06666 1022.15 6.4 1016.69 6.4H983.488V71.2H996.488C1000.89 71.2 1004.62 70.8 1007.69 70C1010.75 69.2 1013.35 67.7333 1015.49 65.6C1017.75 63.3333 1019.62 60.3333 1021.09 56.6C1022.69 52.7333 1024.22 47.8 1025.69 41.8H1027.89V104H1025.69C1024.75 100.133 1023.75 96.4 1022.69 92.8C1021.75 89.2 1020.35 86 1018.49 83.2C1016.75 80.4 1014.35 78.2 1011.29 76.6C1008.35 74.8667 1004.49 74 999.688 74H983.488V143.2H1005.69V146H941.288V143.2ZM1073.89 143.2H1096.09V6.4H1073.89V3.6H1188.29V38.2H1186.09C1184.35 33 1182.49 28.4667 1180.49 24.6C1178.49 20.6 1176.09 17.2667 1173.29 14.6C1170.49 11.8 1167.15 9.73333 1163.29 8.4C1159.42 7.06666 1154.75 6.4 1149.29 6.4H1116.09V68.2H1129.09C1133.49 68.2 1137.22 67.8 1140.29 67C1143.35 66.2 1145.95 64.7333 1148.09 62.6C1150.35 60.3333 1152.22 57.3333 1153.69 53.6C1155.29 49.7333 1156.82 44.8 1158.29 38.8H1160.49V101H1158.29C1157.35 97.1333 1156.35 93.4 1155.29 89.8C1154.35 86.2 1152.95 83 1151.09 80.2C1149.35 77.4 1146.95 75.2 1143.89 73.6C1140.95 71.8667 1137.09 71 1132.29 71H1116.09V143.2H1153.89C1161.22 143.2 1167.29 141.667 1172.09 138.6C1177.02 135.4 1181.02 131.667 1184.09 127.4C1187.15 123 1189.42 118.467 1190.89 113.8C1192.35 109.133 1193.29 105.267 1193.69 102.2H1195.89V146H1073.89V143.2Z" fill="url(#paint0_linear)"/>
<defs>
<linearGradient id="paint0_linear" x1="934.36" y1="-18" x2="-28.5" y2="-18" gradientUnits="userSpaceOnUse">
<stop stop-color="#883C58"/>
<stop offset="1" stop-color="#D97D9F"/>
</linearGradient>
</defs>
</svg>
